<?xml version="1.0" encoding="iso-8859-1"?>
<svg width="113" height="113" fill="none" xmlns="http://www.w3.org/2000/svg"><path d="M224.76 36l-13.44 42h-15.18l-6.78-22.44L182.22 78h-15.18L153.6 36h14.58l7.32 23.88L183.24 36h13.02l7.32 24.18L211.32 36h13.44zm14.971 10.98h-12.3V36h38.76v10.98h-12.3V78h-14.16V46.98zm42.844 0h-12.3V36h38.76v10.98h-12.3V78h-14.16V46.98zm69.786 31.98c-3.48 0-6.88-.38-10.2-1.14-3.28-.8-5.98-1.86-8.1-3.18l4.56-10.32c2 1.16 4.24 2.1 6.72 2.82 2.48.68 4.86 1.02 7.14 1.02 1.96 0 3.36-.18 4.2-.54.84-.4 1.26-.98 1.26-1.74 0-.88-.56-1.54-1.68-1.98-1.08-.44-2.88-.92-5.4-1.44-3.24-.68-5.94-1.4-8.1-2.16-2.16-.8-4.04-2.08-5.64-3.84-1.6-1.8-2.4-4.22-2.4-7.26 0-2.64.74-5.04 2.22-7.2 1.48-2.16 3.68-3.86 6.6-5.1 2.96-1.24 6.54-1.86 10.74-1.86 2.88 0 5.7.32 8.46.96 2.8.6 5.26 1.5 7.38 2.7l-4.26 10.26c-4.12-2.08-8.02-3.12-11.7-3.12-3.64 0-5.46.88-5.46 2.64 0 .84.54 1.48 1.62 1.92 1.08.4 2.86.84 5.34 1.32 3.2.6 5.9 1.3 8.1 2.1 2.2.76 4.1 2.02 5.7 3.78 1.64 1.76 2.46 4.16 2.46 7.2 0 2.64-.74 5.04-2.22 7.2-1.48 2.12-3.7 3.82-6.66 5.1-2.92 1.24-6.48 1.86-10.68 1.86zm48.794 0c-4.52 0-8.58-.94-12.18-2.82-3.6-1.88-6.42-4.48-8.46-7.8-2.04-3.36-3.06-7.14-3.06-11.34s1.02-7.96 3.06-11.28c2.04-3.36 4.86-5.98 8.46-7.86 3.6-1.88 7.66-2.82 12.18-2.82s8.58.94 12.18 2.82c3.6 1.88 6.42 4.5 8.46 7.86 2.04 3.32 3.06 7.08 3.06 11.28 0 4.2-1.02 7.98-3.06 11.34-2.04 3.32-4.86 5.92-8.46 7.8-3.6 1.88-7.66 2.82-12.18 2.82zm0-11.46c1.76 0 3.34-.42 4.74-1.26 1.44-.88 2.58-2.1 3.42-3.66.84-1.6 1.26-3.46 1.26-5.58s-.42-3.96-1.26-5.52c-.84-1.6-1.98-2.82-3.42-3.66-1.4-.88-2.98-1.32-4.74-1.32-1.76 0-3.36.44-4.8 1.32-1.4.84-2.52 2.06-3.36 3.66-.84 1.56-1.26 3.4-1.26 5.52 0 2.12.42 3.98 1.26 5.58.84 1.56 1.96 2.78 3.36 3.66 1.44.84 3.04 1.26 4.8 1.26zM432.994 36h14.16v31.02h18.96V78h-33.12V36zm59.839 42.96c-6.44 0-11.46-1.74-15.06-5.22-3.6-3.48-5.4-8.36-5.4-14.64V36h14.16v22.68c0 3.08.54 5.32 1.62 6.72 1.12 1.4 2.72 2.1 4.8 2.1 2.08 0 3.66-.7 4.74-2.1 1.12-1.4 1.68-3.64 1.68-6.72V36h13.92v23.1c0 6.28-1.8 11.16-5.4 14.64-3.6 3.48-8.62 5.22-15.06 5.22zm38.484-31.98h-12.3V36h38.76v10.98h-12.3V78h-14.16V46.98zM564.455 36h14.16v42h-14.16V36zm45.997 42.96c-4.52 0-8.58-.94-12.18-2.82-3.6-1.88-6.42-4.48-8.46-7.8-2.04-3.36-3.06-7.14-3.06-11.34s1.02-7.96 3.06-11.28c2.04-3.36 4.86-5.98 8.46-7.86 3.6-1.88 7.66-2.82 12.18-2.82s8.58.94 12.18 2.82c3.6 1.88 6.42 4.5 8.46 7.86 2.04 3.32 3.06 7.08 3.06 11.28 0 4.2-1.02 7.98-3.06 11.34-2.04 3.32-4.86 5.92-8.46 7.8-3.6 1.88-7.66 2.82-12.18 2.82zm0-11.46c1.76 0 3.34-.42 4.74-1.26 1.44-.88 2.58-2.1 3.42-3.66.84-1.6 1.26-3.46 1.26-5.58s-.42-3.96-1.26-5.52c-.84-1.6-1.98-2.82-3.42-3.66-1.4-.88-2.98-1.32-4.74-1.32-1.76 0-3.36.44-4.8 1.32-1.4.84-2.52 2.06-3.36 3.66-.84 1.56-1.26 3.4-1.26 5.52 0 2.12.42 3.98 1.26 5.58.84 1.56 1.96 2.78 3.36 3.66 1.44.84 3.04 1.26 4.8 1.26zM683.691 36v42h-11.64l-15.96-19.08V78h-13.8V36h11.64l15.96 19.08V36h13.8zm25.483 42.96c-3.48 0-6.88-.38-10.2-1.14-3.28-.8-5.98-1.86-8.1-3.18l4.56-10.32c2 1.16 4.24 2.1 6.72 2.82 2.48.68 4.86 1.02 7.14 1.02 1.96 0 3.36-.18 4.2-.54.84-.4 1.26-.98 1.26-1.74 0-.88-.56-1.54-1.68-1.98-1.08-.44-2.88-.92-5.4-1.44-3.24-.68-5.94-1.4-8.1-2.16-2.16-.8-4.04-2.08-5.64-3.84-1.6-1.8-2.4-4.22-2.4-7.26 0-2.64.74-5.04 2.22-7.2 1.48-2.16 3.68-3.86 6.6-5.1 2.96-1.24 6.54-1.86 10.74-1.86 2.88 0 5.7.32 8.46.96 2.8.6 5.26 1.5 7.38 2.7l-4.26 10.26c-4.12-2.08-8.02-3.12-11.7-3.12-3.64 0-5.46.88-5.46 2.64 0 .84.54 1.48 1.62 1.92 1.08.4 2.86.84 5.34 1.32 3.2.6 5.9 1.3 8.1 2.1 2.2.76 4.1 2.02 5.7 3.78 1.64 1.76 2.46 4.16 2.46 7.2 0 2.64-.74 5.04-2.22 7.2-1.48 2.12-3.7 3.82-6.66 5.1-2.92 1.24-6.48 1.86-10.68 1.86zM56.685 112.506c31.068 0 56.253-25.185 56.253-56.253S87.753 0 56.685 0 .432 25.185.432 56.253s25.186 56.253 56.253 56.253z" fill="#fff"/><path d="M38.222 33.962l18.71-16.92-3.766 7.41c-.124.31-12.288 24.453-24.082 54.833C40.878 56.562 59.649 22.538 75.086 3.211 69.16 1.11 62.86 0 56.253 0 34.764 0 16.055 12.041 6.607 29.825c6.298-.927 18.648-1.482 31.615 4.137z" fill="url(#paint0_linear)"/><path d="M59.958 44.891l6.545 4.755-1.235 6.483 18.71-16.425-9.694 24.33c4.569-4.385 11.67-10.56 19.636-15.067l4.384-2.47L87.313 68.85c2.222 2.408 8.83 9.941 14.819 20.006 6.546-9.2 10.436-20.438 10.436-32.603 0-22.6-13.338-42.113-32.603-51.066L59.957 44.89z" fill="url(#paint1_linear)"/><path d="M46.929 30.257l-8.15 7.348-.927-.432C23.712 30.689 9.818 32.356 4.94 33.22 1.79 40.26 0 48.04 0 56.253c0 16.672 7.286 31.677 18.772 41.99 10.003-28.837 22.23-55.575 28.157-67.986z" fill="url(#paint2_linear)"/><path d="M84.349 70.208l-.741-.802L90.956 54.4c-11.115 7.41-19.698 17.166-19.76 17.227L65.33 78.36l11.115-27.972-15.808 13.832 2.47-13.276-7.04-5.125L74.655 8.83c-20.933 27.787-46.497 78.73-52.98 91.82 9.57 7.472 21.55 11.856 34.579 11.856 17.722 0 33.53-8.213 43.842-20.995-7.102-12.287-15.685-21.18-15.746-21.303z" fill="url(#paint3_linear)"/><defs><linearGradient id="paint0_linear" x1="56.25" y1="-7.882" x2="21.833" y2="74.149" gradientUnits="userSpaceOnUse"><stop offset="1" stop-color="#1BBA1F"/></linearGradient><linearGradient id="paint1_linear" x1="98.096" y1="-3.131" x2="54.053" y2="73.292" gradientUnits="userSpaceOnUse"><stop offset="1" stop-color="#1BBA1F"/></linearGradient><linearGradient id="paint2_linear" x1="34.02" y1="23.498" x2="-.024" y2="88.348" gradientUnits="userSpaceOnUse"><stop offset="1" stop-color="#1BBA1F"/></linearGradient><linearGradient id="paint3_linear" x1="78.523" y1="-1.477" x2="29.37" y2="101.124" gradientUnits="userSpaceOnUse"><stop offset="1" stop-color="#1BBA1F"/></linearGradient></defs></svg>